<svg aria-hidden="true" style="position: absolute; width: 0; height: 0; overflow: hidden;" version="1.1" xmlns="http://www.w3.org/2000/svg" xmlns:xlink="http://www.w3.org/1999/xlink">
<defs>

<symbol id="icon-logo" viewBox="0 0 82 32">
<path d="M54.83 20.114c0.23 0.198 0.355 0.489 0.342 0.791 0 0.851-0.499 1.276-1.492 1.276h-8.547c-0.656 0.040-1.224-0.456-1.262-1.107-0.003-0.040-0.003-0.080-0.001-0.121 0-0.438 0.183-0.853 0.503-1.151l7.056-7.517h-5.462c-0.357 0.024-0.712-0.078-0.998-0.289-0.234-0.205-0.359-0.504-0.342-0.813 0-0.834 0.496-1.252 1.492-1.252h8.168c0.345-0.017 0.683 0.116 0.923 0.363 0.222 0.233 0.345 0.544 0.341 0.866-0.009 0.44-0.191 0.863-0.505 1.176l-7.030 7.492h5.815c0.357-0.024 0.713 0.078 1 0.288zM59.343 14.939h5.765c0.076-0.826-0.158-1.652-0.657-2.316-0.485-0.541-1.194-0.83-1.922-0.789-1.787 0-2.848 1.035-3.186 3.106v-0.001zM67.499 16.33c-0.2 0.193-0.471 0.299-0.747 0.288h-7.509c-0.021 0.926 0.317 1.823 0.945 2.506 0.674 0.602 1.563 0.908 2.467 0.853 0.542 0.007 1.084-0.065 1.606-0.212 0.502-0.154 0.982-0.367 1.429-0.641 0.193-0.11 0.409-0.169 0.632-0.175 0.261-0.011 0.513 0.106 0.67 0.313 0.164 0.222 0.25 0.49 0.24 0.764 0.003 0.48-0.234 0.93-0.632 1.203-0.549 0.378-1.161 0.659-1.808 0.827-0.762 0.217-1.547 0.328-2.339 0.325-1.148 0.027-2.284-0.227-3.313-0.738-0.921-0.469-1.681-1.199-2.187-2.093-0.53-0.967-0.797-2.057-0.77-3.159-0.021-1.209 0.248-2.406 0.783-3.493 0.489-0.993 1.252-1.826 2.2-2.406 0.975-0.585 2.096-0.885 3.237-0.866 1.489-0.090 2.943 0.467 3.983 1.529 1.005 1.226 1.507 2.782 1.403 4.36 0.020 0.299-0.088 0.593-0.291 0.813h0.001zM80.512 10.742c0.777 0.918 1.162 2.101 1.076 3.296 0 0.316-0.010 0.559-0.028 0.727l-0.505 6.063c-0.012 0.421-0.194 0.818-0.506 1.101-0.321 0.275-0.739 0.418-1.162 0.402-0.418 0.025-0.829-0.12-1.139-0.401-0.278-0.296-0.409-0.702-0.352-1.103l0.506-5.937c0.134-1.855-0.608-2.782-2.225-2.782-0.813-0.045-1.604 0.256-2.176 0.826-0.56 0.642-0.881 1.456-0.91 2.306l-0.481 5.587c-0.011 0.421-0.194 0.818-0.506 1.101-0.321 0.275-0.739 0.418-1.162 0.402-0.414 0.027-0.824-0.119-1.126-0.401-0.271-0.301-0.405-0.702-0.366-1.103l0.81-9.723c0.001-0.402 0.188-0.785 0.505-1.039 0.338-0.264 0.76-0.401 1.189-0.388 0.392-0.023 0.774 0.113 1.062 0.376 0.258 0.268 0.371 0.64 0.304 1.003l-0.027 0.476c0.431-0.607 1.014-1.092 1.696-1.404 0.743-0.34 1.556-0.513 2.377-0.5 1.161-0.083 2.303 0.322 3.148 1.115v-0.001zM30.756 9.282c-1.289-1.968-3.862-2.672-5.988-1.638-2.27 1.144-3.176 3.893-2.025 6.142 0.657 1.282 1.885 2.184 3.314 2.434-0.174 5.422-4.751 9.681-10.226 9.508-5.316-0.167-9.553-4.46-9.601-9.731-0.009-4.061 2.538-7.695 6.383-9.105 0.739-0.264 1.166-1.031 0.995-1.792l-0.011-0.047c-0.188-0.833 0.339-1.658 1.178-1.845 0.068-0.014 0.138-0.025 0.208-0.031 0.385-0.035 0.774-0.054 1.164-0.054 0.482 0 0.965 0.028 1.443 0.079 0.867 0.095 1.648-0.527 1.741-1.384 0.004-0.028 0.007-0.059 0.009-0.088 0.023-0.851-0.63-1.573-1.486-1.644-0.568-0.061-1.138-0.089-1.707-0.089-8.917 0-16.147 7.164-16.147 16.001 0 8.838 7.23 15.999 16.147 15.999 8.918 0 16.146-7.162 16.146-15.999 0-1.564-0.318-4.936-1.537-6.718z"></path>

<path d="M22.296 1.215c0.926 0 1.677 0.742 1.677 1.658s-0.751 1.658-1.677 1.658c-0.926 0-1.677-0.742-1.677-1.658s0.751-1.658 1.677-1.658z"></path>
</symbol>

<symbol id="icon-footer-in" viewBox="0 0 32 32">
<path fill="none" stroke="#fff" style="stroke: var(--color1, #fff)" stroke-linejoin="miter" stroke-linecap="butt" stroke-miterlimit="4" stroke-width="1.6" d="M0.8 0.8h30.4v30.4h-30.4z"></path>
<path fill="#fff" style="fill: var(--color1, #fff)" d="M12.024 22.3h-2.986v-8.412h2.986v8.412zM10.53 12.74c-0.955 0-1.73-0.692-1.73-1.527s0.774-1.513 1.73-1.513c0.954 0 1.729 0.678 1.729 1.513s-0.774 1.528-1.729 1.528zM23.2 22.3h-2.98v-4.095c0-0.976-0.022-2.227-1.552-2.227-1.552 0-1.79 1.060-1.79 2.157v4.166h-2.983v-8.412h2.864v1.147h0.042c0.399-0.661 1.373-1.358 2.826-1.358 3.022 0 3.578 1.741 3.578 4.002v4.621h-0.003z"></path>
</symbol>

<symbol id="icon-logo-1-1" viewBox="0 0 301 32">
<path fill="#fff" style="fill: var(--color1, #fff)" d="M49.402 20.114c0.206 0.198 0.32 0.488 0.307 0.79 0 0.851-0.449 1.277-1.343 1.277h-7.702c-0.591 0.039-1.102-0.456-1.137-1.107-0.001-0.023-0.002-0.049-0.002-0.075 0-0.016 0-0.032 0.001-0.048l-0 0.002c0-0.438 0.164-0.853 0.454-1.152l6.358-7.517h-4.922c-0.027 0.002-0.058 0.003-0.089 0.003-0.309 0-0.592-0.111-0.811-0.294l0.002 0.002c-0.192-0.192-0.311-0.457-0.311-0.75 0-0.022 0.001-0.044 0.002-0.065l-0 0.003c0-0.835 0.448-1.252 1.344-1.252h7.36c0.014-0.001 0.030-0.001 0.047-0.001 0.314 0 0.595 0.14 0.784 0.361l0.001 0.001c0.2 0.234 0.31 0.544 0.306 0.867-0.006 0.453-0.178 0.864-0.457 1.178l0.002-0.002-6.333 7.492h5.24c0.027-0.002 0.058-0.003 0.089-0.003 0.309 0 0.592 0.11 0.813 0.293l-0.002-0.002zM53.469 14.938h5.194c0.009-0.094 0.014-0.203 0.014-0.313 0-0.746-0.226-1.439-0.613-2.015l0.008 0.013c-0.381-0.484-0.967-0.792-1.624-0.792-0.038 0-0.076 0.001-0.113 0.003l0.005-0c-1.61 0-2.566 1.035-2.87 3.105zM60.818 16.33c-0.16 0.177-0.39 0.288-0.647 0.288-0.009 0-0.019-0-0.028-0l0.001 0h-6.766c-0.019 0.927 0.285 1.823 0.851 2.506 0.522 0.53 1.248 0.858 2.050 0.858 0.061 0 0.121-0.002 0.181-0.006l-0.008 0c0.487 0.007 0.977-0.064 1.447-0.211 0.491-0.169 0.917-0.385 1.305-0.652l-0.018 0.012c0.162-0.105 0.358-0.169 0.569-0.175l0.002-0c0.007-0 0.014-0 0.022-0 0.242 0 0.455 0.123 0.579 0.311l0.002 0.003c0.147 0.223 0.225 0.49 0.216 0.764 0.003 0.48-0.21 0.931-0.569 1.203-0.462 0.359-1.005 0.642-1.593 0.817l-0.035 0.009c-0.625 0.206-1.344 0.326-2.090 0.326-0.006 0-0.012 0-0.018-0h0.001c-0.040 0.001-0.088 0.002-0.135 0.002-1.046 0-2.028-0.275-2.878-0.756l0.029 0.015c-0.849-0.496-1.523-1.209-1.958-2.064l-0.013-0.028c-0.439-0.875-0.696-1.907-0.696-3 0-0.056 0.001-0.111 0.002-0.167l-0 0.008c-0.019-1.21 0.223-2.407 0.705-3.494 0.438-0.99 1.117-1.805 1.964-2.395l0.019-0.012c0.796-0.542 1.778-0.866 2.837-0.866 0.028 0 0.056 0 0.084 0.001l-0.004-0c1.343-0.090 2.653 0.467 3.59 1.53 0.904 1.224 1.358 2.781 1.263 4.359 0.001 0.022 0.002 0.047 0.002 0.073 0 0.282-0.1 0.541-0.266 0.743l0.002-0.002h0.001zM72.543 10.742c0.7 0.918 1.046 2.101 0.97 3.296 0 0.316-0.010 0.559-0.026 0.728l-0.454 6.062c-0.007 0.429-0.18 0.817-0.457 1.102l0-0c-0.258 0.25-0.61 0.404-0.998 0.404-0.018 0-0.035-0-0.052-0.001l0.003 0c-0.022 0.001-0.049 0.002-0.075 0.002-0.374 0-0.711-0.155-0.952-0.404l-0-0c-0.205-0.247-0.33-0.566-0.33-0.915 0-0.066 0.004-0.132 0.013-0.195l-0.001 0.007 0.456-5.937c0.121-1.856-0.547-2.783-2.003-2.783-0.039-0.002-0.084-0.003-0.129-0.003-0.729 0-1.383 0.32-1.83 0.827l-0.002 0.003c-0.492 0.632-0.797 1.431-0.819 2.3l-0 0.005-0.433 5.587c-0.007 0.429-0.18 0.817-0.457 1.102l0-0c-0.258 0.25-0.61 0.404-0.998 0.404-0.018 0-0.035-0-0.052-0.001l0.003 0c-0.024 0.002-0.052 0.003-0.080 0.003-0.369 0-0.701-0.155-0.935-0.404l-0.001-0.001c-0.209-0.262-0.336-0.598-0.336-0.963 0-0.049 0.002-0.098 0.007-0.146l-0 0.006 0.73-9.722c0-0.403 0.17-0.785 0.455-1.039 0.305-0.264 0.685-0.401 1.071-0.39 0.021-0.001 0.045-0.002 0.070-0.002 0.348 0 0.663 0.145 0.887 0.377l0 0c0.232 0.27 0.334 0.64 0.274 1.003l-0.025 0.476c0.379-0.595 0.895-1.071 1.506-1.392l0.022-0.010c0.603-0.316 1.318-0.501 2.076-0.501 0.023 0 0.047 0 0.070 0.001l-0.004-0c1.045-0.083 2.074 0.323 2.835 1.116zM27.712 9.281c-1.162-1.967-3.48-2.671-5.395-1.636-2.045 1.144-2.862 3.893-1.824 6.141 0.591 1.283 1.697 2.184 2.986 2.435-0.157 5.422-4.281 9.681-9.215 9.508-4.789-0.167-8.607-4.461-8.65-9.731-0.008-4.063 2.286-7.697 5.75-9.105 0.666-0.264 1.052-1.031 0.897-1.792l-0.011-0.047c-0.17-0.833 0.306-1.657 1.062-1.845 0.063-0.014 0.125-0.025 0.188-0.032 0.317-0.034 0.686-0.054 1.058-0.054 0.455 0 0.903 0.029 1.342 0.086l-0.052-0.005c0.782 0.095 1.486-0.527 1.569-1.384 0.003-0.025 0.006-0.055 0.007-0.086l0-0.002c0.021-0.851-0.568-1.572-1.338-1.643-0.457-0.057-0.986-0.089-1.522-0.089-0.005 0-0.011 0-0.016 0h0.001c-8.035 0-14.549 7.165-14.549 16 0 8.84 6.514 16 14.549 16s14.547-7.161 14.547-16c0-1.564-0.287-4.935-1.384-6.717z"></path>
<path fill="#fff" style="fill: var(--color1, #fff)" d="M20.035 1.215c0.832 0 1.508 0.743 1.508 1.657 0 0.915-0.676 1.658-1.507 1.658-0.833 0-1.507-0.743-1.507-1.658 0-0.914 0.673-1.657 1.507-1.657zM84.913 14.485c0.832 0 1.507 0.742 1.507 1.658 0 0.915-0.675 1.657-1.507 1.657s-1.508-0.743-1.508-1.657c0-0.918 0.676-1.658 1.508-1.658zM103.946 10.589c0.15 0.181 0.225 0.403 0.225 0.668 0 0.003 0 0.007 0 0.011 0 0.349-0.13 0.667-0.345 0.909l0.001-0.001-6.446 7.769h5.51c0.284 0 0.504 0.079 0.661 0.237 0.146 0.154 0.236 0.363 0.236 0.592 0 0.014-0 0.029-0.001 0.043l0-0.002c0 0.312-0.086 0.551-0.257 0.717-0.17 0.163-0.42 0.245-0.746 0.245h-7.428c-0.274 0-0.483-0.083-0.63-0.257-0.14-0.166-0.225-0.382-0.225-0.618 0-0.014 0-0.027 0.001-0.040l-0 0.002c0-0.313 0.113-0.602 0.341-0.87l6.47-7.84h-5.148c-0.284 0-0.504-0.079-0.661-0.237-0.145-0.154-0.235-0.363-0.235-0.593 0-0.014 0-0.028 0.001-0.042l-0 0.002c0-0.643 0.328-0.961 0.982-0.961h7.066c0.27 0 0.479 0.089 0.629 0.267v0.001zM108.401 12.621c-0.515 0.565-0.842 1.383-0.982 2.465h5.507c0.029-1.081-0.175-1.902-0.608-2.465-0.434-0.565-1.049-0.845-1.846-0.845-0.868 0-1.558 0.281-2.070 0.845zM114.581 16.199c-0.143 0.153-0.347 0.249-0.572 0.249-0.013 0-0.027-0-0.040-0.001l0.002 0h-6.638c0.014 1.158 0.285 2.055 0.813 2.689 0.526 0.633 1.287 0.95 2.282 0.95 0.996 0 1.921-0.313 2.776-0.939 0.129-0.099 0.292-0.16 0.469-0.164l0.001-0c0.002-0 0.004-0 0.005-0 0.201 0 0.378 0.101 0.483 0.255l0.001 0.002c0.121 0.162 0.194 0.367 0.194 0.588 0 0.008-0 0.016-0 0.024l0-0.001c0 0.362-0.142 0.665-0.426 0.917-0.385 0.342-0.915 0.626-1.59 0.845-0.609 0.207-1.31 0.327-2.039 0.328h-0c-1.025 0-1.923-0.227-2.689-0.682-0.773-0.464-1.384-1.128-1.772-1.921l-0.012-0.027c-0.42-0.847-0.629-1.823-0.629-2.934 0-1.238 0.216-2.337 0.651-3.299 0.433-0.964 1.041-1.709 1.825-2.241 0.782-0.533 1.686-0.8 2.71-0.8 1.423 0 2.515 0.465 3.277 1.397s1.144 2.282 1.144 4.050c0 0.313-0.075 0.552-0.223 0.715zM123.715 10.272c0.164 0.157 0.246 0.384 0.246 0.682 0 0.719-0.355 1.11-1.067 1.173l-0.576 0.070c-0.982 0.111-1.711 0.424-2.189 0.939-0.476 0.518-0.75 1.279-0.822 2.279l-0.405 5.352c-0.028 0.39-0.149 0.678-0.362 0.857-0.203 0.168-0.467 0.271-0.754 0.271-0.013 0-0.027-0-0.040-0.001l0.002 0c-0.013 0.001-0.028 0.001-0.044 0.001-0.276 0-0.528-0.108-0.714-0.284l0.001 0c-0.192-0.186-0.274-0.467-0.245-0.845l0.703-9.603c0.014-0.344 0.136-0.609 0.365-0.799 0.208-0.173 0.478-0.278 0.772-0.278 0.006 0 0.012 0 0.017 0h-0.001c0.285 0 0.511 0.088 0.682 0.267 0.173 0.181 0.25 0.442 0.237 0.786l-0.064 0.964c0.71-1.205 1.837-1.87 3.373-1.997l0.237-0.022c0.27-0.031 0.487 0.031 0.648 0.186zM131.64 18.842c0.527-0.814 0.793-1.909 0.793-3.288 0-1.174-0.248-2.070-0.737-2.689-0.491-0.616-1.194-0.925-2.101-0.925-1 0-1.761 0.406-2.289 1.219-0.525 0.815-0.787 1.912-0.787 3.288 0 1.191 0.246 2.090 0.735 2.701 0.493 0.609 1.199 0.915 2.125 0.915 0.984 0 1.738-0.408 2.262-1.222zM126.709 21.261c-0.76-0.467-1.36-1.131-1.737-1.921l-0.012-0.027c-0.413-0.849-0.619-1.823-0.619-2.936 0-1.286 0.217-2.401 0.651-3.357 0.433-0.954 1.046-1.69 1.835-2.207 0.79-0.518 1.704-0.775 2.744-0.775 1.024 0 1.913 0.23 2.667 0.691 0.755 0.463 1.338 1.113 1.75 1.948 0.415 0.838 0.619 1.823 0.619 2.947 0 1.284-0.216 2.401-0.65 3.347-0.437 0.946-1.046 1.678-1.837 2.194s-1.71 0.775-2.763 0.775c-1.011 0-1.894-0.227-2.649-0.682zM145.217 12.621c-0.512 0.565-0.839 1.383-0.982 2.465h5.508c0.028-1.081-0.175-1.902-0.609-2.465-0.433-0.565-1.049-0.845-1.846-0.845-0.868 0-1.558 0.281-2.070 0.845zM151.398 16.199c-0.143 0.153-0.346 0.249-0.571 0.249-0.013 0-0.027-0-0.040-0.001l0.002 0h-6.638c0.014 1.158 0.284 2.055 0.813 2.689 0.525 0.633 1.287 0.95 2.285 0.95 0.995 0 1.917-0.313 2.773-0.939 0.129-0.099 0.292-0.16 0.469-0.164l0.001-0c0.199 0 0.362 0.086 0.491 0.257 0.119 0.162 0.191 0.365 0.191 0.585 0 0.009-0 0.018-0 0.027l0-0.001c0 0.362-0.142 0.665-0.427 0.917-0.384 0.342-0.913 0.626-1.589 0.845-0.609 0.207-1.31 0.328-2.039 0.328h-0c-1.024 0-1.921-0.227-2.688-0.682-0.773-0.464-1.384-1.128-1.77-1.921l-0.012-0.027c-0.42-0.847-0.63-1.823-0.63-2.934 0-1.238 0.216-2.337 0.651-3.299 0.435-0.964 1.042-1.709 1.824-2.241 0.783-0.533 1.686-0.8 2.71-0.8 1.423 0 2.517 0.465 3.278 1.397s1.141 2.282 1.141 4.050c0 0.313-0.072 0.552-0.223 0.715zM157.786 7.784c-0.363 0.437-0.58 1.087-0.651 1.948l-0.045 0.589h2.115c0.285 0 0.502 0.077 0.651 0.234 0.14 0.155 0.225 0.361 0.225 0.587 0 0.016-0 0.032-0.001 0.048l0-0.002c0 0.641-0.327 0.963-0.981 0.963h-2.136l-0.619 8.616c-0.014 0.376-0.131 0.658-0.351 0.846-0.205 0.176-0.473 0.284-0.767 0.284-0.005 0-0.009-0-0.014-0h0.001c-0.008 0-0.018 0-0.027 0-0.279 0-0.532-0.108-0.721-0.285l0.001 0.001c-0.199-0.189-0.292-0.469-0.277-0.846l0.618-8.616h-1.259c-0.284 0-0.505-0.078-0.661-0.235-0.159-0.156-0.235-0.366-0.235-0.633 0-0.313 0.085-0.551 0.256-0.717 0.17-0.166 0.42-0.245 0.746-0.245h1.284l0.019-0.306c0.228-3.005 1.7-4.601 4.417-4.789l0.451-0.024c0.753-0.047 1.13 0.227 1.13 0.821 0 0.296-0.077 0.526-0.235 0.682-0.156 0.156-0.384 0.25-0.68 0.28l-0.579 0.047c-0.754 0.064-1.313 0.314-1.675 0.751zM166.029 7.784c-0.363 0.437-0.58 1.087-0.653 1.948l-0.042 0.589h2.113c0.287 0 0.502 0.077 0.651 0.234 0.14 0.155 0.225 0.361 0.225 0.587 0 0.016-0 0.032-0.001 0.048l0-0.002c0 0.641-0.328 0.963-0.981 0.963h-2.136l-0.619 8.616c-0.014 0.376-0.131 0.658-0.352 0.846-0.204 0.176-0.472 0.284-0.765 0.284-0.005 0-0.011-0-0.016-0h0.001c-0.008 0-0.017 0-0.027 0-0.278 0-0.531-0.108-0.72-0.285l0.001 0.001c-0.199-0.189-0.292-0.469-0.278-0.846l0.621-8.616h-1.259c-0.285 0-0.506-0.078-0.662-0.235-0.147-0.152-0.238-0.36-0.238-0.589 0-0.015 0-0.031 0.001-0.046l-0 0.002c0-0.313 0.086-0.551 0.257-0.717 0.17-0.166 0.42-0.245 0.747-0.245h1.281l0.022-0.306c0.227-3.005 1.699-4.601 4.416-4.789l0.449-0.024c0.754-0.047 1.13 0.227 1.13 0.821 0 0.296-0.077 0.526-0.234 0.682s-0.385 0.25-0.682 0.28l-0.579 0.047c-0.753 0.064-1.311 0.314-1.674 0.751zM176.114 18.841c0.526-0.813 0.79-1.906 0.79-3.286 0-1.174-0.245-2.070-0.737-2.689-0.49-0.616-1.192-0.925-2.101-0.925-0.999 0-1.759 0.406-2.286 1.219-0.527 0.815-0.787 1.912-0.787 3.288 0 1.191 0.243 2.090 0.735 2.701 0.491 0.609 1.198 0.915 2.123 0.915 0.984 0 1.735-0.408 2.264-1.222zM171.182 21.261c-0.754-0.454-1.336-1.103-1.75-1.948-0.41-0.849-0.619-1.823-0.619-2.936 0-1.286 0.218-2.401 0.653-3.357 0.433-0.954 1.045-1.69 1.837-2.207 0.787-0.518 1.704-0.775 2.741-0.775 1.025 0 1.914 0.23 2.669 0.691 0.755 0.463 1.336 1.113 1.752 1.948 0.412 0.838 0.619 1.823 0.619 2.947 0 1.284-0.218 2.401-0.651 3.347-0.435 0.946-1.048 1.678-1.838 2.194-0.787 0.516-1.709 0.775-2.762 0.775-1.011 0-1.895-0.227-2.649-0.682zM187.994 10.272c0.164 0.157 0.246 0.384 0.246 0.682 0 0.719-0.356 1.11-1.066 1.173l-0.579 0.070c-0.979 0.111-1.71 0.424-2.187 0.939-0.476 0.518-0.75 1.279-0.822 2.279l-0.405 5.352c-0.029 0.39-0.149 0.678-0.362 0.857-0.203 0.168-0.467 0.27-0.754 0.27-0.013 0-0.026-0-0.038-0.001l0.002 0c-0.013 0.001-0.028 0.001-0.043 0.001-0.278 0-0.53-0.108-0.718-0.284l0.001 0.001c-0.189-0.186-0.271-0.467-0.242-0.845l0.704-9.603c0.014-0.344 0.135-0.609 0.363-0.799 0.207-0.173 0.476-0.278 0.77-0.278 0.006 0 0.012 0 0.018 0h-0.001c0.285 0 0.513 0.088 0.686 0.267 0.17 0.181 0.249 0.442 0.232 0.786l-0.063 0.964c0.71-1.205 1.834-1.87 3.374-1.997l0.234-0.022c0.27-0.031 0.488 0.031 0.65 0.186zM192.906 17.528c-0.014 0.092-0.019 0.234-0.019 0.423 0 0.703 0.145 1.238 0.438 1.607 0.289 0.369 0.7 0.551 1.227 0.551 0.17 0 0.339-0.011 0.509-0.033 0.173-0.025 0.309-0.035 0.408-0.035 0.17 0 0.307 0.074 0.406 0.223s0.149 0.355 0.149 0.621c0 0.392-0.138 0.666-0.416 0.822s-0.767 0.235-1.462 0.235c-1.082 0-1.923-0.328-2.52-0.985-0.598-0.659-0.897-1.582-0.897-2.773 0-0.25 0.008-0.445 0.024-0.587l0.384-5.444h-1.261c-0.285 0-0.505-0.079-0.662-0.237-0.156-0.154-0.235-0.376-0.235-0.658 0-0.296 0.086-0.526 0.257-0.691 0.171-0.164 0.419-0.246 0.746-0.246h1.281l0.17-2.442c0.019-0.315 0.155-0.595 0.364-0.8l0-0c0.198-0.188 0.466-0.304 0.761-0.304 0.010 0 0.020 0 0.030 0l-0.001-0c0.327 0 0.582 0.102 0.768 0.303 0.186 0.207 0.262 0.48 0.235 0.824l-0.173 2.418h2.115c0.27 0 0.483 0.078 0.643 0.234 0.144 0.154 0.232 0.361 0.232 0.589 0 0.017-0 0.033-0.001 0.049l0-0.002c0 0.641-0.327 0.963-0.981 0.963h-2.134l-0.385 5.376zM211.915 11.047c0.604 0.673 0.907 1.667 0.907 2.983 0 0.313-0.006 0.547-0.021 0.704l-0.427 6.033c-0.029 0.359-0.146 0.637-0.352 0.835-0.198 0.182-0.463 0.293-0.754 0.293-0.016 0-0.032-0-0.048-0.001l0.002 0c-0.327 0-0.584-0.097-0.769-0.292-0.185-0.198-0.263-0.476-0.235-0.835l0.43-5.916c0.013-0.135 0.020-0.291 0.020-0.449 0-0.016-0-0.032-0-0.047l0 0.002c0-1.596-0.697-2.394-2.091-2.394-0.883 0-1.583 0.289-2.104 0.868s-0.814 1.387-0.886 2.419l-0.406 5.517c-0.028 0.359-0.145 0.637-0.351 0.835-0.199 0.182-0.465 0.293-0.757 0.293-0.016 0-0.031-0-0.047-0.001l0.002 0c-0.326 0-0.58-0.097-0.758-0.292-0.177-0.198-0.259-0.476-0.243-0.835l0.704-9.6c0.001-0.315 0.141-0.597 0.362-0.788l0.001-0.001c0.209-0.182 0.484-0.292 0.785-0.292 0.009 0 0.017 0 0.026 0l-0.001-0c0.298 0 0.534 0.093 0.705 0.281s0.248 0.445 0.235 0.774l-0.064 0.821c0.356-0.609 0.835-1.082 1.441-1.419 0.569-0.317 1.249-0.504 1.972-0.504 0.023 0 0.047 0 0.070 0.001l-0.004-0c1.166 0 2.052 0.335 2.656 1.009zM222.24 18.841c0.527-0.813 0.79-1.906 0.79-3.286 0-1.174-0.246-2.070-0.737-2.689-0.488-0.616-1.192-0.925-2.101-0.925-0.998 0-1.759 0.406-2.286 1.219-0.525 0.815-0.789 1.912-0.789 3.288 0 1.191 0.245 2.090 0.736 2.701 0.491 0.609 1.199 0.915 2.123 0.915 0.984 0 1.736-0.408 2.264-1.222zM217.309 21.261c-0.761-0.467-1.361-1.131-1.74-1.921l-0.012-0.027c-0.41-0.849-0.616-1.823-0.616-2.936 0-1.286 0.216-2.401 0.65-3.357 0.435-0.954 1.045-1.69 1.837-2.207 0.79-0.518 1.704-0.775 2.744-0.775 1.024 0 1.914 0.23 2.666 0.691 0.755 0.463 1.338 1.113 1.752 1.948 0.413 0.838 0.619 1.823 0.619 2.947 0 1.284-0.216 2.401-0.651 3.347s-1.046 1.678-1.837 2.194c-0.789 0.516-1.71 0.775-2.763 0.775-1.010 0-1.894-0.227-2.648-0.682zM236.031 11.048c0.604 0.672 0.907 1.665 0.907 2.982 0 0.313-0.007 0.547-0.022 0.704l-0.426 6.033c-0.029 0.359-0.147 0.637-0.352 0.835-0.199 0.182-0.464 0.293-0.756 0.293-0.016 0-0.032-0-0.048-0.001l0.002 0c-0.327 0-0.583-0.097-0.769-0.292-0.185-0.198-0.262-0.476-0.235-0.835l0.429-5.916c0.013-0.11 0.021-0.274 0.021-0.494 0-1.596-0.697-2.394-2.091-2.394-0.882 0-1.583 0.289-2.104 0.868s-0.813 1.387-0.886 2.419l-0.405 5.517c-0.028 0.359-0.146 0.637-0.352 0.835-0.198 0.182-0.464 0.293-0.755 0.293-0.016 0-0.032-0-0.048-0.001l0.002 0c-0.327 0-0.579-0.097-0.757-0.292-0.178-0.198-0.26-0.476-0.245-0.835l0.703-9.6c0.003-0.314 0.143-0.596 0.362-0.788l0.001-0.001c0.21-0.182 0.485-0.292 0.787-0.292 0.009 0 0.017 0 0.026 0l-0.001-0c0.299 0 0.534 0.093 0.707 0.281 0.171 0.188 0.248 0.445 0.234 0.774l-0.064 0.821c0.347-0.598 0.835-1.080 1.421-1.409l0.019-0.010c0.569-0.317 1.249-0.504 1.972-0.504 0.023 0 0.047 0 0.070 0.001l-0.004-0c1.167 0 2.054 0.335 2.659 1.009zM246.902 18.89c0.533-0.783 0.799-1.864 0.799-3.242 0-1.188-0.249-2.104-0.746-2.746-0.499-0.641-1.208-0.961-2.134-0.961-0.938 0-1.679 0.395-2.221 1.184-0.54 0.79-0.811 1.869-0.811 3.228 0 1.208 0.249 2.126 0.749 2.759 0.497 0.636 1.208 0.952 2.133 0.952 0.954 0 1.699-0.39 2.232-1.173zM247.777 10.719c0.675 0.455 1.198 1.099 1.567 1.937 0.373 0.838 0.557 1.811 0.557 2.923 0 1.252-0.207 2.36-0.619 3.322-0.41 0.963-0.993 1.711-1.739 2.243-0.697 0.498-1.566 0.796-2.505 0.796-0.023 0-0.047-0-0.070-0.001l0.004 0c-0.811 0-1.514-0.186-2.104-0.562-0.597-0.388-1.062-0.932-1.346-1.574l-0.009-0.023-0.064 0.986c-0.015 0.359-0.128 0.637-0.342 0.835-0.2 0.181-0.467 0.293-0.759 0.293-0.010 0-0.021-0-0.031-0l0.002 0c-0.014 0.001-0.031 0.001-0.048 0.001-0.274 0-0.522-0.112-0.701-0.293l-0-0c-0.185-0.198-0.269-0.476-0.256-0.835l1.067-14.579c0.004-0.317 0.143-0.601 0.363-0.796l0.001-0.001c0.208-0.19 0.486-0.306 0.791-0.306 0.006 0 0.013 0 0.019 0h-0.001c0.313 0 0.559 0.093 0.735 0.281 0.181 0.188 0.262 0.447 0.249 0.776l-0.429 5.75c0.697-1.12 1.922-1.855 3.318-1.855 0.012 0 0.023 0 0.035 0h-0.002c0.868 0 1.639 0.228 2.317 0.682zM257.56 19.311c0.513-0.579 0.803-1.322 0.874-2.23l0.045-0.657h-0.598c-1.053 0-1.878 0.063-2.477 0.188s-1.024 0.328-1.28 0.608c-0.257 0.282-0.385 0.675-0.385 1.176 0 0.547 0.174 0.982 0.523 1.302 0.351 0.32 0.822 0.48 1.421 0.48 0.739 0 1.365-0.288 1.878-0.867zM260.698 14.076c0 0.296-0.007 0.526-0.024 0.682l-0.423 6.056c-0.017 0.345-0.12 0.609-0.313 0.799-0.186 0.176-0.439 0.285-0.716 0.285-0.015 0-0.029-0-0.044-0.001l0.002 0c-0.011 0-0.024 0.001-0.038 0.001-0.282 0-0.535-0.124-0.707-0.32l-0.001-0.001c-0.184-0.211-0.263-0.481-0.234-0.81l0.040-0.799c-0.298 0.643-0.708 1.13-1.237 1.468-0.502 0.317-1.113 0.506-1.768 0.506-0.024 0-0.047-0-0.071-0.001l0.004 0c-1.041 0-1.898-0.309-2.571-0.928-0.678-0.618-1.014-1.412-1.014-2.382 0-0.877 0.205-1.569 0.619-2.079 0.412-0.508 1.069-0.879 1.973-1.116 0.904-0.234 2.118-0.352 3.64-0.352h0.769l0.042-0.586c0.057-0.893-0.086-1.544-0.426-1.962-0.341-0.413-0.897-0.622-1.665-0.622-0.941 0-1.978 0.346-3.117 1.034-0.12 0.074-0.266 0.118-0.421 0.118-0.002 0-0.004 0-0.006-0h0c-0.002 0-0.004 0-0.006 0-0.214 0-0.405-0.101-0.527-0.257l-0.001-0.001c-0.133-0.159-0.213-0.366-0.213-0.592 0-0.007 0-0.013 0-0.020l-0 0.001c0-0.376 0.178-0.689 0.534-0.939 0.511-0.376 1.119-0.673 1.824-0.893 0.641-0.207 1.379-0.327 2.144-0.327 0 0 0.001 0 0.001 0h-0c2.632 0 3.95 1.347 3.95 4.038zM271.975 11.047c0.605 0.673 0.907 1.667 0.907 2.983 0 0.313-0.007 0.547-0.021 0.704l-0.427 6.033c-0.029 0.359-0.146 0.637-0.353 0.835-0.198 0.182-0.463 0.293-0.754 0.293-0.016 0-0.032-0-0.048-0.001l0.002 0c-0.327 0-0.583-0.097-0.767-0.292-0.186-0.198-0.266-0.476-0.237-0.835l0.427-5.916c0.013-0.11 0.021-0.274 0.021-0.494 0-1.596-0.697-2.394-2.091-2.394-0.882 0-1.583 0.289-2.104 0.868-0.518 0.579-0.815 1.387-0.885 2.419l-0.405 5.517c-0.029 0.359-0.146 0.637-0.352 0.835-0.199 0.182-0.466 0.293-0.758 0.293-0.015 0-0.030-0-0.046-0.001l0.002 0c-0.327 0-0.58-0.097-0.758-0.292-0.177-0.198-0.26-0.476-0.245-0.835l0.704-9.6c0.001-0.315 0.14-0.596 0.36-0.788l0.001-0.001c0.21-0.182 0.486-0.292 0.788-0.292 0.008 0 0.016 0 0.024 0l-0.001-0c0.299 0 0.534 0.093 0.705 0.281s0.248 0.445 0.237 0.774l-0.064 0.821c0.353-0.609 0.835-1.082 1.439-1.419 0.57-0.317 1.25-0.504 1.974-0.504 0.023 0 0.047 0 0.070 0.001l-0.004-0c1.166 0 2.052 0.335 2.656 1.009zM283.967 20.11c0.16 0.173 0.258 0.404 0.258 0.659 0 0.008-0 0.015-0 0.023l0-0.001c-0.005 0.304-0.131 0.577-0.331 0.775l-0 0c-0.223 0.237-0.466 0.353-0.736 0.353-0.257 0-0.486-0.118-0.685-0.353l-4.718-5.142-0.321 4.367c-0.028 0.362-0.149 0.636-0.36 0.821-0.196 0.176-0.457 0.284-0.743 0.284-0.009 0-0.017-0-0.026-0l0.001 0c-0.011 0-0.025 0.001-0.038 0.001-0.286 0-0.545-0.117-0.731-0.307l-0-0c-0.2-0.205-0.285-0.486-0.256-0.846l1.046-14.532c0.014-0.359 0.134-0.633 0.36-0.822 0.21-0.176 0.483-0.282 0.78-0.282 0.004 0 0.008 0 0.012 0h-0.001c0.313 0 0.562 0.097 0.747 0.295 0.184 0.195 0.271 0.48 0.255 0.857l-0.659 9.177 5.037-4.953c0.165-0.197 0.41-0.323 0.684-0.327h0.001c0.256 0 0.479 0.106 0.673 0.317 0.177 0.186 0.286 0.439 0.287 0.716v0c-0.001 0.295-0.124 0.561-0.32 0.751l-0 0-4.057 3.921 3.843 4.249zM300.37 5.287c0.118 0.129 0.167 0.306 0.147 0.536l-0.399 5.504c-0.029 0.497-0.245 0.747-0.65 0.747-0.186 0-0.328-0.063-0.426-0.186-0.099-0.125-0.141-0.31-0.118-0.561l0.249-3.506-1.459 2.71c-0.077 0.147-0.176 0.271-0.295 0.373l-0.002 0.001c-0.094 0.070-0.212 0.112-0.34 0.112-0.006 0-0.011-0-0.017-0l0.001 0c-0.005 0-0.011 0-0.017 0-0.115 0-0.219-0.042-0.299-0.112l0.001 0c-0.101-0.103-0.179-0.229-0.226-0.369l-0.002-0.007-1.094-2.613-0.25 3.41c-0.010 0.25-0.075 0.435-0.193 0.561-0.112 0.115-0.269 0.187-0.443 0.187-0.010 0-0.019-0-0.029-0.001l0.001 0c-0.188 0-0.331-0.063-0.43-0.186-0.097-0.125-0.142-0.31-0.131-0.561l0.398-5.505c0.009-0.209 0.095-0.396 0.23-0.536l-0 0c0.117-0.12 0.28-0.195 0.461-0.195 0.001 0 0.002 0 0.002 0h-0c0.257 0 0.452 0.168 0.591 0.504l1.535 3.798 2.081-3.798c0.188-0.334 0.416-0.502 0.682-0.502 0.175 0 0.323 0.064 0.441 0.195zM293.578 5.741c0 0.434-0.231 0.65-0.693 0.65h-1.447l-0.355 4.953c0 0.001 0 0.002 0 0.003 0 0.402-0.326 0.728-0.728 0.728-0.003 0-0.007-0-0.010-0h0.001c-0.007 0-0.015 0-0.023 0-0.179 0-0.341-0.075-0.456-0.195l-0-0c-0.124-0.129-0.179-0.309-0.17-0.537l0.367-4.952h-1.43c-0.403 0-0.605-0.195-0.605-0.584 0-0.434 0.225-0.65 0.679-0.65h4.266c0.405 0 0.605 0.195 0.605 0.584z"></path>
</symbol>

<symbol id="icon-footer-logo" viewBox="0 0 90 32">
<path fill="#fff" style="fill: var(--color1, #fff)" d="M36.881 0l8.605 20.448-35.26 11.552-10.226-29.777 36.881-2.223zM23.132 10.664c-2.295 1.199-3.476 3.265-3.292 6.038 0.181 2.727 1.612 4.474 3.991 5.395 1.917 0.742 3.883 0.843 5.878 0.541 0.539-0.082 1.068-0.239 1.575-0.373l0.302-0.078v-2.948c-1.386 0.142-2.646 0.425-3.89 0.362-1.809-0.093-2.998-1.447-3.088-3.187-0.13-2.527 1.659-4.065 4.285-3.625 0.696 0.116 1.375 0.359 2.090 0.577l0.31 0.090v-3.299c-2.822-0.868-5.56-0.852-8.161 0.507zM52.984 17.94c0.231 0 0.452 0.035 0.664 0.102 0.21 0.068 0.397 0.207 0.556 0.415l-0.466 0.453c-0.075-0.121-0.179-0.218-0.301-0.285l-0.004-0.002c-0.125-0.068-0.275-0.109-0.433-0.109-0.005 0-0.011 0-0.016 0h0.001c-0.16 0-0.292 0.022-0.398 0.067-0.1 0.040-0.184 0.099-0.254 0.172l-0 0c-0.059 0.063-0.105 0.138-0.134 0.222l-0.001 0.004c-0.023 0.067-0.037 0.144-0.038 0.224v0c0 0.191 0.051 0.338 0.155 0.44s0.232 0.186 0.385 0.249c0.153 0.064 0.321 0.121 0.503 0.173s0.349 0.122 0.502 0.214c0.153 0.092 0.282 0.216 0.385 0.37 0.104 0.155 0.156 0.369 0.156 0.641 0 0.217-0.039 0.413-0.116 0.586s-0.183 0.32-0.313 0.44l-0.001 0.001c-0.131 0.119-0.287 0.211-0.466 0.274-0.167 0.061-0.36 0.096-0.561 0.096-0.005 0-0.009-0-0.014-0h0.001c-0.273 0-0.529-0.051-0.772-0.153-0.241-0.099-0.438-0.262-0.577-0.468l-0.003-0.005 0.473-0.434c0.103 0.166 0.236 0.289 0.397 0.367 0.162 0.079 0.329 0.118 0.5 0.118 0.213-0.002 0.409-0.073 0.567-0.192l-0.002 0.002c0.082-0.065 0.149-0.143 0.2-0.237 0.050-0.091 0.079-0.199 0.079-0.315 0-0.004-0-0.008-0-0.012v0.001c0-0.174-0.053-0.307-0.156-0.399-0.11-0.094-0.238-0.172-0.377-0.227l-0.009-0.003c-0.112-0.048-0.279-0.108-0.448-0.163l-0.054-0.015c-0.192-0.061-0.358-0.142-0.51-0.244l0.007 0.004c-0.158-0.107-0.288-0.245-0.382-0.406l-0.003-0.006c-0.104-0.173-0.156-0.406-0.156-0.698 0.005-0.322 0.132-0.613 0.336-0.831l-0.001 0.001c0.115-0.123 0.264-0.226 0.445-0.309s0.4-0.125 0.655-0.125zM83.519 19.472c0.251 0 0.463 0.047 0.637 0.141s0.316 0.216 0.428 0.367 0.193 0.321 0.243 0.511c0.049 0.189 0.074 0.383 0.074 0.577v0.205h-2.273c0 0.131 0.027 0.252 0.081 0.36 0.053 0.109 0.125 0.202 0.211 0.278 0.089 0.077 0.19 0.136 0.305 0.179 0.116 0.042 0.237 0.064 0.36 0.064 0.167 0 0.312-0.042 0.436-0.125 0.132-0.092 0.245-0.201 0.338-0.325l0.003-0.004 0.406 0.333c-0.299 0.413-0.717 0.619-1.256 0.619-0.223 0-0.426-0.042-0.607-0.122s-0.335-0.194-0.459-0.333l-0.001-0.001c-0.124-0.142-0.223-0.31-0.288-0.494l-0.003-0.011c-0.064-0.183-0.101-0.394-0.101-0.613 0-0.006 0-0.011 0-0.017v0.001c0-0.225 0.037-0.435 0.11-0.629 0.075-0.193 0.176-0.362 0.305-0.504 0.257-0.281 0.625-0.456 1.034-0.456 0.006 0 0.012 0 0.018 0h-0.001zM77.201 19.472c0.251 0 0.463 0.047 0.637 0.141s0.317 0.216 0.429 0.367c0.111 0.151 0.192 0.321 0.241 0.511s0.075 0.383 0.075 0.577v0.205h-2.273c0 0.131 0.026 0.252 0.081 0.36 0.053 0.109 0.124 0.202 0.212 0.278 0.087 0.077 0.189 0.136 0.305 0.179s0.235 0.064 0.359 0.064c0.168 0 0.313-0.042 0.437-0.125 0.132-0.092 0.245-0.201 0.338-0.325l0.003-0.004 0.407 0.333c-0.299 0.413-0.718 0.619-1.256 0.619-0.224 0-0.426-0.042-0.607-0.122s-0.335-0.194-0.459-0.333l-0.001-0.001c-0.124-0.142-0.223-0.31-0.288-0.494l-0.003-0.011c-0.064-0.183-0.102-0.395-0.102-0.615 0-0.005 0-0.010 0-0.014v0.001c-0-0.005-0-0.011-0-0.017 0-0.22 0.041-0.43 0.115-0.624l-0.004 0.012c0.074-0.193 0.175-0.362 0.305-0.504 0.257-0.281 0.625-0.456 1.035-0.456 0.006 0 0.011 0 0.017 0h-0.001zM69.107 19.472c0.25 0 0.463 0.047 0.637 0.141s0.316 0.216 0.427 0.367c0.112 0.151 0.193 0.321 0.243 0.511 0.049 0.189 0.074 0.383 0.074 0.577v0.205h-2.273c0 0.131 0.028 0.252 0.081 0.36s0.125 0.202 0.212 0.278c0.088 0.077 0.19 0.136 0.305 0.179s0.235 0.064 0.36 0.064c0.167 0 0.313-0.042 0.436-0.125s0.237-0.192 0.342-0.328l0.406 0.333c-0.298 0.413-0.717 0.619-1.256 0.619-0.006 0-0.012 0-0.019 0-0.213 0-0.415-0.045-0.598-0.126l0.009 0.004c-0.181-0.080-0.335-0.194-0.459-0.333l-0.001-0.001c-0.124-0.142-0.223-0.31-0.287-0.494l-0.003-0.011c-0.064-0.183-0.102-0.394-0.102-0.613 0-0.005 0-0.011 0-0.016v0.001c0-0.225 0.036-0.435 0.111-0.629s0.175-0.362 0.305-0.504c0.255-0.281 0.622-0.456 1.030-0.456 0.007 0 0.014 0 0.021 0h-0.001zM66.271 19.478c0.207 0 0.406 0.039 0.595 0.118s0.355 0.198 0.494 0.36l-0.407 0.395c-0.088-0.1-0.191-0.184-0.307-0.249l-0.006-0.003c-0.109-0.055-0.237-0.087-0.372-0.087-0.007 0-0.015 0-0.022 0l0.001-0c-0.147 0-0.276 0.029-0.385 0.086-0.111 0.058-0.202 0.137-0.275 0.237-0.072 0.098-0.13 0.213-0.165 0.337l-0.002 0.008c-0.036 0.119-0.057 0.255-0.057 0.396 0 0.003 0 0.005 0 0.008v-0c0 0.141 0.021 0.274 0.065 0.399s0.106 0.236 0.186 0.329c0.079 0.093 0.175 0.167 0.287 0.22s0.238 0.079 0.378 0.079c0.151 0 0.28-0.029 0.387-0.086 0.109-0.057 0.209-0.141 0.299-0.252l0.384 0.408c-0.139 0.166-0.302 0.285-0.488 0.358-0.172 0.068-0.372 0.108-0.58 0.108-0.003 0-0.006 0-0.009-0h0c-0.22 0-0.42-0.038-0.601-0.114-0.363-0.153-0.642-0.447-0.772-0.811l-0.003-0.010c-0.068-0.184-0.108-0.397-0.108-0.619 0-0.008 0-0.016 0-0.024v0.001c0-0.234 0.035-0.449 0.108-0.644s0.173-0.364 0.302-0.504 0.285-0.25 0.466-0.328c0.182-0.079 0.384-0.118 0.608-0.118zM56.257 19.472c0.25 0 0.463 0.047 0.637 0.141s0.316 0.216 0.427 0.367c0.111 0.151 0.193 0.321 0.243 0.511 0.049 0.189 0.074 0.383 0.074 0.577v0.205h-2.273c0 0.131 0.027 0.252 0.081 0.36s0.125 0.202 0.213 0.278c0.088 0.077 0.189 0.136 0.305 0.179s0.235 0.064 0.36 0.064c0.167 0 0.313-0.042 0.437-0.125s0.237-0.192 0.34-0.328l0.407 0.333c-0.299 0.413-0.718 0.619-1.256 0.619-0.224 0-0.426-0.042-0.607-0.122s-0.335-0.194-0.459-0.333l-0.001-0.001c-0.124-0.142-0.223-0.31-0.287-0.494l-0.003-0.011c-0.065-0.183-0.102-0.393-0.102-0.613 0-0.006 0-0.011 0-0.017v0.001c0-0.225 0.037-0.435 0.111-0.629s0.175-0.362 0.305-0.504c0.255-0.281 0.622-0.456 1.030-0.456 0.007 0 0.014 0 0.021 0h-0.001zM8.134 10.006l-0.851 0.002v12.602h4.452v-3.744l0.807-0.032c1.041-0.044 1.939-0.108 2.687-0.353 1.082-0.354 1.818-0.805 2.634-1.587 1.846-1.772 1.389-4.836-0.803-6.073-0.715-0.403-1.549-0.745-2.341-0.778-1.35-0.056-2.703-0.060-4.079-0.054l-2.506 0.015zM79.511 19.549l0.849 2.317 0.814-2.317h0.574l-1.113 3.025h-0.592l-1.155-3.026h0.623zM60.78 19.549l0.849 2.317 0.814-2.317h0.574l-1.113 3.025h-0.591l-1.155-3.026h0.622zM59.686 19.472c0.003-0 0.007-0 0.011-0 0.082 0 0.16 0.014 0.233 0.040l-0.005-0.002-0.024 0.619c-0.033-0.011-0.078-0.022-0.123-0.031l-0.009-0.002c-0.039-0.008-0.085-0.012-0.131-0.013h-0c-0.263 0-0.464 0.079-0.604 0.237s-0.21 0.401-0.21 0.734v1.519h-0.538v-3.025h0.538v0.466h0.012c0.037-0.081 0.084-0.155 0.144-0.221 0.176-0.193 0.426-0.316 0.706-0.323l0.001-0zM86.127 17.749v4.824h-0.538v-4.824h0.538zM73.51 18.055v3.944h1.944v0.574h-2.519v-4.518h0.575zM64.070 19.549v3.025h-0.539v-3.025h0.539zM90.429 18.056v4.518h-0.575v-3.816l-0.778 0.765-0.335-0.427 1.179-1.040h0.508zM38.098 9.924h-4.522v12.601h4.522v-12.6zM56.244 19.93c-0.131 0-0.252 0.027-0.362 0.080s-0.202 0.122-0.278 0.207c-0.076 0.086-0.135 0.18-0.177 0.285-0.042 0.103-0.062 0.206-0.062 0.308h1.699c-0.003-0.126-0.023-0.246-0.059-0.36l0.002 0.009c-0.034-0.107-0.087-0.2-0.154-0.279l0.001 0.001c-0.069-0.078-0.153-0.141-0.249-0.183l-0.005-0.002c-0.1-0.043-0.216-0.068-0.339-0.068-0.006 0-0.013 0-0.019 0l0.001-0zM83.506 19.93c-0.132 0-0.252 0.027-0.362 0.080-0.109 0.052-0.201 0.122-0.277 0.206l-0.001 0.001c-0.142 0.157-0.232 0.364-0.24 0.592l-0 0.002h1.699c-0.003-0.126-0.023-0.246-0.059-0.36l0.002 0.009c-0.034-0.107-0.086-0.2-0.153-0.279l0.001 0.001c-0.069-0.078-0.154-0.141-0.25-0.183l-0.005-0.002c-0.1-0.043-0.216-0.068-0.337-0.068-0.007 0-0.013 0-0.020 0l0.001-0zM77.189 19.93c-0.131 0-0.253 0.027-0.362 0.080s-0.201 0.122-0.278 0.207l-0.001 0.001c-0.072 0.081-0.132 0.175-0.174 0.279l-0.002 0.006c-0.042 0.103-0.063 0.206-0.063 0.308h1.699c-0.003-0.126-0.024-0.246-0.060-0.36l0.002 0.009c-0.034-0.107-0.086-0.2-0.153-0.279l0.001 0.001c-0.069-0.079-0.154-0.141-0.25-0.183l-0.005-0.002c-0.1-0.043-0.216-0.068-0.338-0.068-0.007 0-0.013 0-0.019 0l0.001-0zM69.094 19.93c-0.132 0-0.252 0.027-0.362 0.080-0.109 0.052-0.201 0.122-0.278 0.207l-0.001 0.001c-0.073 0.081-0.132 0.175-0.174 0.279l-0.002 0.006c-0.042 0.103-0.063 0.206-0.063 0.308h1.699c-0.003-0.126-0.024-0.246-0.060-0.36l0.002 0.009c-0.033-0.107-0.086-0.2-0.154-0.279l0.001 0.001c-0.068-0.079-0.153-0.141-0.249-0.183l-0.004-0.002c-0.1-0.043-0.216-0.068-0.339-0.068-0.006 0-0.013 0-0.019 0l0.001-0zM63.8 18.042c0.107 0 0.2 0.042 0.278 0.125 0.072 0.075 0.116 0.177 0.116 0.289 0 0.002-0 0.005-0 0.007v-0c0 0.002 0 0.005 0 0.007 0 0.112-0.044 0.215-0.116 0.29l0-0c-0.068 0.077-0.167 0.125-0.277 0.125-0.001 0-0.001 0-0.001 0h0c-0.001 0-0.001 0-0.002 0-0.11 0-0.209-0.048-0.276-0.125l-0-0c-0.072-0.075-0.117-0.177-0.117-0.29 0-0.003 0-0.005 0-0.008v0c0-0.115 0.039-0.214 0.117-0.296 0.068-0.077 0.166-0.125 0.276-0.125 0.001 0 0.001 0 0.002 0h-0zM14.246 13.325c0.278 0.408 0.311 1.292 0.082 1.749-0.44 0.881-1.254 0.935-2.134 0.925l-0.425-0.006v-3.325c0.966-0.198 1.907-0.182 2.477 0.655zM60.744 9.798c0.231 0 0.452 0.035 0.664 0.102s0.397 0.207 0.557 0.415l-0.466 0.454c-0.075-0.122-0.179-0.219-0.302-0.285l-0.004-0.002c-0.125-0.068-0.274-0.109-0.433-0.109-0.005 0-0.011 0-0.016 0h0.001c-0.16 0-0.292 0.022-0.398 0.067-0.1 0.041-0.185 0.099-0.254 0.172l-0 0c-0.058 0.063-0.104 0.138-0.133 0.222l-0.001 0.004c-0.023 0.067-0.037 0.143-0.039 0.223v0.001c0 0.192 0.051 0.338 0.155 0.44s0.232 0.185 0.386 0.248c0.153 0.064 0.321 0.121 0.503 0.173 0.181 0.051 0.349 0.122 0.502 0.214 0.154 0.091 0.282 0.215 0.386 0.369s0.156 0.369 0.156 0.641c0 0.217-0.039 0.413-0.117 0.587-0.149 0.338-0.428 0.595-0.771 0.712l-0.009 0.003c-0.168 0.061-0.361 0.096-0.563 0.096-0.004 0-0.008 0-0.013-0h0.001c-0.271 0-0.528-0.051-0.772-0.153-0.24-0.1-0.437-0.262-0.577-0.467l-0.003-0.004 0.473-0.435c0.103 0.167 0.237 0.289 0.397 0.367 0.162 0.079 0.329 0.118 0.501 0.118 0.213-0.001 0.41-0.072 0.567-0.192l-0.002 0.002c0.081-0.064 0.149-0.143 0.198-0.233l0.002-0.004c0.049-0.090 0.078-0.196 0.078-0.31 0-0.006-0-0.011-0-0.017l0 0.001c0-0.174-0.051-0.307-0.156-0.399-0.11-0.094-0.237-0.171-0.376-0.226l-0.009-0.003c-0.113-0.048-0.28-0.109-0.449-0.164l-0.054-0.015c-0.191-0.061-0.357-0.142-0.509-0.244l0.007 0.005c-0.158-0.107-0.287-0.245-0.382-0.405l-0.003-0.006c-0.104-0.174-0.157-0.406-0.157-0.7 0.006-0.322 0.133-0.613 0.337-0.831l-0.001 0.001c0.124-0.128 0.272-0.232 0.436-0.305l0.009-0.004c0.181-0.083 0.4-0.125 0.655-0.125zM57.417 9.798c0.232 0 0.452 0.035 0.664 0.102s0.397 0.207 0.557 0.415l-0.466 0.454c-0.075-0.121-0.178-0.219-0.3-0.285l-0.004-0.002c-0.126-0.068-0.275-0.109-0.434-0.109-0.005 0-0.011 0-0.016 0h0.001c-0.159 0-0.292 0.022-0.397 0.067-0.1 0.040-0.184 0.099-0.254 0.172l-0 0c-0.059 0.063-0.105 0.138-0.134 0.222l-0.001 0.004c-0.023 0.067-0.038 0.143-0.039 0.223v0.001c0 0.192 0.051 0.338 0.155 0.44s0.232 0.185 0.385 0.248c0.154 0.064 0.321 0.121 0.503 0.173s0.35 0.122 0.502 0.214c0.154 0.091 0.282 0.215 0.385 0.369 0.105 0.155 0.156 0.369 0.156 0.641 0 0.217-0.038 0.413-0.115 0.587-0.079 0.174-0.183 0.321-0.314 0.44s-0.287 0.211-0.467 0.274c-0.167 0.061-0.36 0.096-0.562 0.096-0.004 0-0.009-0-0.013-0h0.001c-0.271 0-0.529-0.051-0.771-0.153-0.24-0.1-0.438-0.262-0.577-0.467l-0.003-0.004 0.473-0.435c0.103 0.167 0.237 0.289 0.397 0.367 0.163 0.079 0.329 0.118 0.501 0.118 0.213-0.001 0.41-0.072 0.567-0.192l-0.002 0.002c0.081-0.065 0.148-0.144 0.2-0.237 0.049-0.090 0.077-0.197 0.077-0.311 0-0.005-0-0.011-0-0.016v0.001c0-0.174-0.051-0.307-0.155-0.399-0.11-0.094-0.237-0.171-0.376-0.226l-0.009-0.003c-0.113-0.048-0.28-0.109-0.449-0.164l-0.054-0.015c-0.181-0.057-0.348-0.137-0.502-0.239-0.158-0.107-0.287-0.245-0.382-0.405l-0.003-0.006c-0.104-0.174-0.156-0.406-0.156-0.7 0.006-0.322 0.132-0.613 0.336-0.831l-0.001 0.001c0.115-0.123 0.264-0.226 0.446-0.309s0.399-0.125 0.655-0.125zM66.463 9.798c0.279 0 0.553 0.058 0.822 0.174 0.269 0.114 0.49 0.29 0.661 0.529l-0.479 0.39c-0.117-0.163-0.27-0.293-0.447-0.38l-0.007-0.003c-0.166-0.084-0.361-0.134-0.568-0.134h-0c-0.006-0-0.014-0-0.022-0-0.453 0-0.857 0.208-1.122 0.533l-0.002 0.003c-0.136 0.166-0.245 0.36-0.316 0.571l-0.004 0.013c-0.075 0.223-0.113 0.462-0.113 0.717 0 0.239 0.036 0.464 0.108 0.677s0.175 0.4 0.31 0.561c0.136 0.162 0.301 0.289 0.497 0.383 0.195 0.094 0.416 0.141 0.664 0.141 0.243 0 0.457-0.054 0.64-0.16s0.339-0.255 0.466-0.447l0.485 0.39-0.049 0.065c-0.031 0.038-0.070 0.083-0.118 0.136-0.079 0.087-0.184 0.174-0.317 0.261s-0.291 0.164-0.476 0.23c-0.182 0.063-0.391 0.099-0.608 0.099-0.012 0-0.024-0-0.035-0l0.002 0c-0.336 0-0.637-0.067-0.906-0.204-0.27-0.136-0.499-0.316-0.686-0.533l-0.002-0.003c-0.183-0.212-0.33-0.461-0.429-0.733l-0.005-0.017c-0.094-0.252-0.149-0.542-0.149-0.846v-0c0-0.348 0.054-0.671 0.161-0.967 0.106-0.296 0.259-0.55 0.453-0.767l-0.002 0.002c0.191-0.211 0.423-0.38 0.684-0.496l0.013-0.005c0.271-0.119 0.57-0.179 0.897-0.179zM74.88 10.558v0.851h0.771v0.497h-0.771v1.372c0 0.085 0.002 0.17 0.006 0.252 0.002 0.081 0.018 0.158 0.046 0.229l-0.002-0.005c0.025 0.065 0.066 0.118 0.12 0.159s0.133 0.061 0.236 0.061c0.064 0 0.129-0.007 0.198-0.019s0.132-0.037 0.187-0.071l-0.002 0.001v0.523c-0.072 0.040-0.156 0.069-0.245 0.079l-0.003 0c-0.102 0.015-0.181 0.022-0.236 0.022-0.208 0-0.369-0.031-0.482-0.093-0.106-0.055-0.192-0.136-0.25-0.236l-0.002-0.003c-0.052-0.095-0.087-0.207-0.096-0.326l-0-0.003c-0.010-0.11-0.015-0.238-0.015-0.367v-1.576h-0.622v-0.498h0.622v-0.849h0.539zM87.377 9.608v4.824h-0.538v-0.433h-0.012c-0.104 0.161-0.247 0.287-0.428 0.376-0.163 0.084-0.355 0.133-0.559 0.134h-0c-0.22 0-0.417-0.040-0.595-0.12-0.179-0.082-0.331-0.197-0.453-0.337l-0.001-0.002c-0.123-0.142-0.222-0.31-0.287-0.494l-0.003-0.011c-0.065-0.181-0.102-0.389-0.102-0.607 0-0.006 0-0.013 0-0.019v0.001c0-0.226 0.034-0.435 0.102-0.629 0.067-0.194 0.166-0.362 0.292-0.505l-0.001 0.002c0.125-0.143 0.277-0.255 0.454-0.336 0.169-0.076 0.366-0.12 0.574-0.12 0.008 0 0.015 0 0.023 0h-0.001c0.204 0 0.395 0.045 0.574 0.137 0.179 0.090 0.317 0.216 0.413 0.373h0.012v-2.233h0.538zM82.507 11.33c0.251 0 0.464 0.047 0.637 0.141s0.316 0.216 0.428 0.367c0.111 0.15 0.193 0.321 0.242 0.51s0.075 0.383 0.075 0.577v0.205h-2.273c0 0.132 0.026 0.252 0.081 0.36s0.125 0.202 0.213 0.278c0.087 0.077 0.189 0.137 0.305 0.179s0.234 0.064 0.359 0.064c0.168 0 0.313-0.042 0.437-0.125s0.237-0.192 0.34-0.329l0.407 0.333c-0.298 0.413-0.717 0.619-1.256 0.619-0.006 0-0.012 0-0.019 0-0.213 0-0.415-0.045-0.598-0.126l0.009 0.004c-0.181-0.080-0.334-0.193-0.459-0.333l-0.001-0.001c-0.124-0.142-0.223-0.31-0.288-0.494l-0.003-0.011c-0.064-0.183-0.102-0.394-0.102-0.613 0-0.006 0-0.011 0-0.017v0.001c0-0.225 0.036-0.434 0.111-0.628 0.073-0.195 0.176-0.362 0.306-0.505l-0.001 0.001c0.255-0.281 0.622-0.457 1.030-0.457 0.007 0 0.014 0 0.021 0h-0.001zM69.89 11.33c0.252 0 0.463 0.047 0.637 0.141s0.316 0.216 0.428 0.367c0.112 0.15 0.193 0.321 0.243 0.51 0.049 0.189 0.074 0.383 0.074 0.577v0.205h-2.273c0 0.132 0.027 0.252 0.081 0.36s0.125 0.202 0.212 0.278c0.088 0.077 0.191 0.137 0.305 0.179 0.116 0.042 0.236 0.064 0.36 0.064 0.005 0 0.012 0 0.018 0 0.156 0 0.301-0.047 0.422-0.127l-0.003 0.002c0.124-0.083 0.237-0.192 0.341-0.329l0.406 0.333c-0.299 0.413-0.717 0.619-1.256 0.619-0.006 0-0.012 0-0.019 0-0.213 0-0.415-0.045-0.598-0.126l0.009 0.004c-0.181-0.080-0.335-0.193-0.459-0.333l-0.001-0.001c-0.124-0.142-0.223-0.31-0.287-0.494l-0.003-0.011c-0.064-0.183-0.101-0.394-0.101-0.614 0-0.005 0-0.011 0-0.016v0.001c0-0.225 0.036-0.434 0.11-0.628s0.178-0.362 0.307-0.505l-0.001 0.001c0.255-0.281 0.622-0.456 1.030-0.456 0.007 0 0.013 0 0.020 0h-0.001zM53.151 9.914c0.299 0 0.562 0.036 0.787 0.109 0.226 0.072 0.42 0.169 0.586 0.291 0.166 0.12 0.303 0.26 0.413 0.417s0.196 0.319 0.261 0.486c0.063 0.166 0.109 0.331 0.138 0.497s0.042 0.319 0.042 0.459c0 0.289-0.050 0.569-0.149 0.84-0.105 0.279-0.256 0.519-0.445 0.722l0.001-0.001c-0.195 0.211-0.438 0.38-0.728 0.508-0.289 0.127-0.623 0.191-1.002 0.191h-1.381v-4.518h1.477zM78.96 9.531c0.066 0 0.132 0.002 0.198 0.006l-0.009-0c0.065 0.005 0.136 0.017 0.212 0.038l-0.060 0.511c-0.085-0.037-0.183-0.058-0.286-0.058-0.007 0-0.013 0-0.020 0l0.001-0c-0.006-0-0.013-0-0.020-0-0.079 0-0.155 0.018-0.222 0.050l0.003-0.001c-0.059 0.032-0.107 0.079-0.139 0.135l-0.001 0.002c-0.035 0.062-0.059 0.135-0.066 0.212l-0 0.002c-0.010 0.080-0.015 0.172-0.015 0.265 0 0.006 0 0.013 0 0.019v-0.001 0.696h0.641v0.497h-0.646v2.527h-0.538v-2.527h-0.61v-0.498h0.61v-0.676c0-0.403 0.073-0.705 0.218-0.902s0.395-0.296 0.75-0.296l0.001-0.001zM80.354 11.407v3.025h-0.539v-3.025h0.539zM76.926 11.407v3.025h-0.538v-3.025h0.538zM73.318 11.33c0.088 0 0.168 0.013 0.239 0.038l-0.024 0.619c-0.032-0.010-0.076-0.021-0.121-0.031l-0.011-0.002c-0.040-0.007-0.085-0.012-0.132-0.012h-0c-0.263 0-0.465 0.079-0.605 0.236-0.138 0.158-0.209 0.402-0.209 0.735v1.518h-0.538v-3.025h0.538v0.466h0.012c0.038-0.085 0.086-0.158 0.144-0.221l-0.001 0.001c0.176-0.192 0.426-0.315 0.705-0.322l0.001-0zM85.905 11.866c-0.007-0-0.015-0-0.023-0-0.262 0-0.497 0.114-0.659 0.296l-0.001 0.001c-0.080 0.094-0.143 0.204-0.184 0.326l-0.002 0.007c-0.043 0.13-0.065 0.271-0.065 0.424s0.022 0.295 0.065 0.424c0.042 0.128 0.106 0.238 0.187 0.333l-0.001-0.001c0.080 0.091 0.178 0.164 0.293 0.217 0.116 0.054 0.246 0.080 0.39 0.080s0.273-0.026 0.388-0.080c0.115-0.053 0.214-0.125 0.293-0.217 0.081-0.091 0.142-0.202 0.186-0.331s0.066-0.272 0.066-0.424c0-0.153-0.022-0.295-0.066-0.424-0.042-0.128-0.105-0.239-0.187-0.334l0.001 0.001c-0.080-0.091-0.177-0.164-0.288-0.214l-0.005-0.002c-0.11-0.051-0.239-0.080-0.375-0.080-0.005 0-0.009 0-0.014 0h0.001zM53.11 10.488h-0.861v3.369h0.724c0.243 0 0.473-0.035 0.691-0.105s0.408-0.175 0.57-0.317c0.165-0.139 0.294-0.316 0.39-0.526s0.144-0.457 0.144-0.737c0-0.144-0.022-0.313-0.067-0.507-0.050-0.21-0.135-0.395-0.251-0.556l0.003 0.005c-0.133-0.184-0.302-0.333-0.498-0.44l-0.008-0.004c-0.215-0.121-0.494-0.181-0.838-0.181zM82.495 11.789c-0.131 0-0.253 0.028-0.362 0.081s-0.202 0.122-0.278 0.207c-0.072 0.081-0.132 0.175-0.174 0.279l-0.002 0.007c-0.042 0.103-0.062 0.206-0.062 0.309h1.699c-0.002-0.126-0.023-0.247-0.059-0.36l0.002 0.009c-0.033-0.107-0.086-0.2-0.153-0.279l0.001 0.001c-0.069-0.079-0.153-0.141-0.249-0.183l-0.004-0.002c-0.1-0.043-0.216-0.068-0.338-0.068-0.006 0-0.013 0-0.019 0l0.001-0zM69.878 11.789c-0.131 0-0.252 0.028-0.362 0.081-0.108 0.052-0.2 0.122-0.276 0.206l-0.001 0.001c-0.077 0.086-0.136 0.18-0.177 0.285-0.042 0.103-0.063 0.206-0.063 0.309h1.699c-0.003-0.126-0.023-0.247-0.059-0.361l0.002 0.009c-0.034-0.107-0.086-0.2-0.154-0.279l0.001 0.001c-0.068-0.079-0.153-0.141-0.249-0.183l-0.004-0.002c-0.1-0.043-0.216-0.068-0.338-0.068-0.007 0-0.013 0-0.020 0l0.001-0zM76.656 9.901c0.109 0 0.201 0.042 0.278 0.125s0.117 0.181 0.117 0.296c0 0.002 0 0.004 0 0.007 0 0.113-0.045 0.215-0.117 0.29l0-0c-0.068 0.076-0.166 0.124-0.275 0.124-0.001 0-0.002 0-0.003 0h0c-0.001 0-0.001 0-0.002 0-0.109 0-0.208-0.048-0.275-0.123l-0-0c-0.072-0.075-0.117-0.178-0.117-0.29 0-0.002 0-0.005 0-0.007v0c0-0.115 0.039-0.214 0.117-0.297 0.068-0.077 0.166-0.125 0.276-0.125 0.001 0 0.001 0 0.002 0h-0zM80.084 9.901c0.108 0 0.2 0.042 0.278 0.125s0.116 0.181 0.116 0.296c0 0.002 0 0.004 0 0.007 0 0.113-0.044 0.215-0.116 0.291l0-0c-0.068 0.076-0.166 0.124-0.276 0.124-0.001 0-0.002 0-0.002 0h0c-0.001 0-0.001 0-0.002 0-0.11 0-0.208-0.048-0.276-0.123l-0-0c-0.072-0.076-0.117-0.178-0.117-0.291 0-0.002 0-0.004 0-0.006v0c0-0.115 0.040-0.214 0.117-0.297 0.068-0.077 0.167-0.125 0.277-0.125 0.001 0 0.001 0 0.002 0h-0zM35.798 3.039c-1.677-0.004-2.759 1.070-2.771 2.751-0.013 1.677 1.078 2.788 2.74 2.792 1.692 0.004 2.758-1.061 2.762-2.758 0.003-1.695-1.061-2.781-2.731-2.785z"></path>

<svg aria-hidden="true" style="position: absolute; width: 0; height: 0; overflow: hidden;" version="1.1" xmlns="http://www.w3.org/2000/svg" xmlns:xlink="http://www.w3.org/1999/xlink">
<defs>

<symbol id="icon-moon" viewBox="0 0 32 32">
<path d="M31.2 24.776c-20.534 3.491-27.536-12.509-15.165-23.976-18.168 0.8-18.256 18.596-12.37 24.75 11.268 11.783 27.534-0.774 27.534-0.774z"></path>
<path d="M20.266 6.4c-0.272 0-0.408-0.14-0.408-0.421v-2.422h-2.384c-0.272 0-0.408-0.131-0.408-0.395s0.136-0.395 0.408-0.395h2.384v-2.346c0-0.28 0.136-0.421 0.408-0.421s0.408 0.14 0.408 0.421v2.346h2.384c0.272 0 0.408 0.132 0.408 0.395s-0.136 0.395-0.408 0.395h-2.384v2.422c0 0.28-0.136 0.421-0.408 0.421zM28.266 11.734c-0.226 0-0.34-0.117-0.34-0.351v-2.018h-1.986c-0.226 0-0.34-0.11-0.34-0.33s0.114-0.329 0.34-0.329h1.986v-1.955c0-0.234 0.114-0.35 0.34-0.35s0.34 0.117 0.34 0.35v1.955h1.987c0.226 0 0.34 0.11 0.34 0.33s-0.114 0.329-0.34 0.329h-1.987v2.018c0 0.234-0.113 0.351-0.34 0.351zM17.6 17.066c-0.226 0-0.34-0.117-0.34-0.35v-2.018h-1.986c-0.227 0-0.34-0.11-0.34-0.33s0.113-0.33 0.34-0.33h1.986v-1.954c0-0.234 0.114-0.35 0.34-0.35s0.34 0.117 0.34 0.35v1.954h1.986c0.227 0 0.34 0.11 0.34 0.33s-0.113 0.33-0.34 0.33h-1.986v2.018c0 0.234-0.114 0.35-0.34 0.35zM28.266 22.4c-0.226 0-0.34-0.117-0.34-0.35v-2.018h-1.986c-0.226 0-0.34-0.11-0.34-0.33s0.114-0.33 0.34-0.33h1.986v-1.954c0-0.234 0.114-0.351 0.34-0.351s0.34 0.118 0.34 0.351v1.954h1.987c0.226 0 0.34 0.11 0.34 0.33s-0.114 0.33-0.34 0.33h-1.987v2.018c0 0.234-0.113 0.35-0.34 0.35z"></path>
</symbol>

<symbol id="icon-arrow-down" viewBox="0 0 48 32">
<path d="M24 32l-24-24 8-8 16 16 16-16 8 8-24 24z"></path>
</symbol>

<symbol id="icon-sun" viewBox="0 0 32 32">
<path fill="#fff" style="fill: var(--color1, #fff)" d="M15.984 3.202c-0.030 0.006-0.056 0.013-0.080 0.021l0.005-0.001c-0.274 0.064-0.475 0.306-0.475 0.594 0 0.005 0 0.010 0 0.015v-0.001 3.653c-0.002 0.219 0.112 0.424 0.302 0.536 0.088 0.051 0.193 0.082 0.306 0.082s0.218-0.030 0.308-0.083l-0.003 0.002c0.182-0.109 0.302-0.304 0.302-0.528 0-0.003-0-0.006-0-0.008v0-3.653c0-0.007 0-0.016 0-0.024 0-0.335-0.271-0.606-0.606-0.606-0.020 0-0.041 0.001-0.061 0.003l0.003-0zM7.334 6.779c-0.228 0.042-0.41 0.208-0.473 0.424l-0.001 0.004c-0.064 0.224 0.002 0.462 0.171 0.618l2.58 2.588c0.147 0.181 0.382 0.264 0.61 0.211 0.227-0.054 0.402-0.229 0.455-0.452l0.001-0.004c0.010-0.041 0.015-0.087 0.015-0.135 0-0.192-0.088-0.363-0.226-0.475l-0.001-0.001-2.581-2.588c-0.111-0.119-0.269-0.192-0.444-0.192-0.018 0-0.035 0.001-0.052 0.002l0.002-0h-0.057zM24.562 6.779c-0.143 0.022-0.268 0.090-0.36 0.19l-0 0-2.581 2.588c-0.138 0.113-0.225 0.283-0.225 0.474 0 0.287 0.198 0.528 0.465 0.594l0.004 0.001c0.041 0.010 0.087 0.015 0.135 0.015 0.191 0 0.362-0.088 0.473-0.226l0.001-0.001 2.58-2.588c0.117-0.112 0.19-0.269 0.19-0.443 0-0.094-0.021-0.183-0.059-0.262l0.002 0.004c-0.099-0.208-0.308-0.349-0.549-0.349-0.027 0-0.054 0.002-0.080 0.005l0.003-0zM15.986 9.918c-0.023 0.006-0.042 0.013-0.060 0.021l0.004-0.001c-0.042 0.003-0.081 0.010-0.119 0.020l0.004-0.001-0.018 0.019c-3.221 0.138-5.825 2.768-5.825 6.030 0 3.351 2.73 6.088 6.071 6.088s6.072-2.737 6.072-6.088c0-3.25-2.584-5.872-5.787-6.030-0.022 0-0.036-0.019-0.057-0.019-0.056-0.022-0.121-0.036-0.189-0.038l-0.001-0h-0.094zM16.004 11.136h0.095c2.656 0.031 4.8 2.2 4.8 4.87 0 2.693-2.172 4.87-4.857 4.87-2.682 0-4.858-2.178-4.858-4.87 0-2.678 2.154-4.848 4.819-4.87zM3.728 15.398c-0.283 0.060-0.492 0.307-0.492 0.603 0 0.34 0.276 0.616 0.616 0.616 0.016 0 0.032-0.001 0.048-0.002l-0.002 0h3.643c0.001 0 0.003 0 0.005 0 0.337 0 0.61-0.273 0.61-0.61 0-0.112-0.030-0.217-0.083-0.308l0.002 0.003c-0.108-0.182-0.303-0.302-0.527-0.302-0.002 0-0.005 0-0.007 0h-3.813zM24.371 15.398c-0.283 0.060-0.492 0.307-0.492 0.603 0 0.34 0.276 0.616 0.616 0.616 0.016 0 0.032-0.001 0.048-0.002l-0.002 0h3.643c0.001 0 0.003 0 0.005 0 0.337 0 0.61-0.273 0.61-0.61 0-0.112-0.030-0.217-0.083-0.308l0.002 0.003c-0.108-0.182-0.303-0.302-0.527-0.302-0.002 0-0.005 0-0.007 0h-3.813zM9.97 21.41c-0.144 0.021-0.268 0.090-0.36 0.19l-0 0-2.58 2.588c-0.138 0.113-0.225 0.283-0.225 0.474 0 0.287 0.198 0.528 0.465 0.594l0.004 0.001c0.041 0.010 0.087 0.015 0.135 0.015 0.191 0 0.362-0.088 0.473-0.226l0.001-0.001 2.58-2.588c0.115-0.111 0.187-0.266 0.187-0.439 0-0.336-0.272-0.608-0.608-0.608-0.005 0-0.010 0-0.016 0h-0.056zM21.923 21.41c-0.228 0.042-0.41 0.208-0.473 0.424l-0.001 0.004c-0.064 0.224 0.002 0.462 0.171 0.618l2.58 2.588c0.147 0.181 0.382 0.264 0.61 0.211 0.227-0.054 0.402-0.229 0.455-0.452l0.001-0.004c0.010-0.041 0.015-0.087 0.015-0.135 0-0.192-0.088-0.363-0.226-0.475l-0.001-0.001-2.58-2.588c-0.11-0.116-0.264-0.189-0.436-0.19h-0.114zM15.985 23.902c-0.031 0.006-0.056 0.012-0.081 0.020l0.005-0.001c-0.274 0.064-0.475 0.306-0.475 0.594 0 0.005 0 0.011 0 0.016l-0-0.001v3.653c-0.002 0.218 0.112 0.423 0.302 0.534 0.088 0.051 0.193 0.082 0.306 0.082s0.218-0.030 0.308-0.083l-0.003 0.002c0.182-0.109 0.302-0.304 0.302-0.528 0-0.002 0-0.005-0-0.007v0-3.653c0-0.007 0-0.016 0-0.024 0-0.335-0.271-0.606-0.606-0.606-0.020 0-0.041 0.001-0.061 0.003l0.003-0z"></path>


</symbol>
</defs>
</svg>
